<svg width="18" height="18" viewBox="0 0 18 18" fill="none" xmlns="http://www.w3.org/2000/svg">
<path d="M0.552037 9.76042H1.95948C2.05685 9.76042 2.13652 9.68073 2.13652 9.58333V3.93216H13.8343V5.53919C13.8343 5.58125 13.8475 5.62109 13.8741 5.6543C13.889 5.67342 13.9075 5.68939 13.9287 5.70131C13.9498 5.71323 13.973 5.72084 13.9971 5.72372C14.0212 5.72661 14.0456 5.72469 14.0689 5.7181C14.0922 5.7115 14.114 5.70035 14.133 5.68529L17.3042 3.19505C17.3993 3.08438 17.3839 2.96706 17.3042 2.90287L14.133 0.414846C14.1004 0.388735 14.0597 0.374665 14.0179 0.375002C13.9161 0.375002 13.832 0.459117 13.832 0.560939V2.16797H1.9617C1.08757 2.16797 0.375 2.88073 0.375 3.75729V9.58333C0.375 9.68073 0.454667 9.76042 0.552037 9.76042ZM17.1935 7.98958H15.7861C15.6887 7.98958 15.6091 8.06927 15.6091 8.16667V13.8178H3.91132V12.2108C3.91132 12.1687 3.89804 12.1289 3.87149 12.0957C3.85658 12.0766 3.83803 12.0606 3.81692 12.0487C3.79581 12.0368 3.77255 12.0292 3.74848 12.0263C3.72441 12.0234 3.70001 12.0253 3.67668 12.0319C3.65336 12.0385 3.63157 12.0497 3.61257 12.0647L0.441389 14.5549C0.346231 14.6656 0.361722 14.7829 0.441389 14.8471L3.61257 17.3352C3.64576 17.3617 3.6856 17.375 3.72764 17.375C3.82944 17.375 3.91353 17.2909 3.91353 17.1891V15.582H15.7883C16.6624 15.582 17.375 14.8693 17.375 13.9927V8.16667C17.3706 8.06927 17.2909 7.98958 17.1935 7.98958Z" fill="#737373"/>
</svg>
